<svg width="185" height="24" fill="none" xmlns="http://www.w3.org/2000/svg"><path d="M129.63 23.9h43.17a11.94 11.94 0 0 0 0-23.9h-43.17a11.94 11.94 0 0 0 0 23.9Zm-122.8.03h5.26V4.68h6.83V0H0v4.66h6.82v19.27Zm18.98 0h5.27V5.57h.07l6.05 18.35h4.05L47.5 5.57h.07v18.35h5.27V0H44.9l-5.54 15.6h-.07L33.8 0H25.8v23.93ZM60.23.08h7.9c1.85 0 3.68.23 5.46.68 1.63.38 3.16 1.09 4.51 2.08a10.2 10.2 0 0 1 3.06 3.73 12.5 12.5 0 0 1 1.13 5.57 11.01 11.01 0 0 1-4.05 8.84 13 13 0 0 1-4.3 2.28c-1.64.52-3.36.78-5.1.77h-8.61V.08Zm5.27 19.06h2.7c1.14 0 2.27-.12 3.38-.38.99-.2 1.92-.6 2.74-1.2a5.9 5.9 0 0 0 1.82-2.26c.47-1.08.7-2.25.67-3.43a6.67 6.67 0 0 0-.67-3.05 6.2 6.2 0 0 0-1.78-2.15c-.78-.58-1.66-1-2.59-1.26-1.03-.3-2.1-.44-3.16-.43H65.5v14.16ZM89.93.08h8.91c1.05 0 2.1.08 3.13.22.99.13 1.94.43 2.82.88a5.37 5.37 0 0 1 2.03 1.84c.56.95.83 2.04.78 3.14a5.05 5.05 0 0 1-1.13 3.38 6.16 6.16 0 0 1-3 1.9v.05c.75.1 1.48.33 2.15.67a5.26 5.26 0 0 1 2.72 3.02c.25.7.38 1.43.37 2.16a5.76 5.76 0 0 1-.81 3.17 6.3 6.3 0 0 1-2.1 2.02c-.89.54-1.86.92-2.88 1.12a15.2 15.2 0 0 1-3.2.34h-9.8V.09Zm5.27 9.56H99c.4 0 .81-.04 1.2-.13.38-.09.74-.23 1.07-.44.31-.2.58-.48.76-.81.2-.38.3-.8.28-1.22.03-.43-.08-.86-.3-1.23-.2-.32-.49-.58-.82-.76a4.1 4.1 0 0 0-1.2-.39 6.69 6.69 0 0 0-1.25-.12h-3.58l.03 5.1Zm0 9.9h4.73c.41 0 .83-.04 1.23-.13s.79-.25 1.13-.48c.34-.22.63-.52.83-.88.22-.4.33-.85.32-1.31.02-.49-.13-.97-.42-1.35a2.7 2.7 0 0 0-1.07-.8c-.43-.18-.88-.3-1.35-.37-.46-.07-.92-.1-1.38-.1h-3.99l-.03 5.42Z" fill="#fff"/></svg>